<svg viewBox="0 0 554 118" fill="none" xmlns="http://www.w3.org/2000/svg" role="img" aria-label="Die Papier Logo">
  <path d="M16.6821 88.1293C11.3871 88.1293 5.93272 88.188 0.310482 88.3136L0 85.2386L8.24874 82.9679C9.31445 82.6411 9.86828 82.0043 9.91024 81.0659C9.9522 79.4236 9.97737 77.597 10.0025 75.561C10.0193 73.5333 10.0361 71.2877 10.0361 68.8327V19.8497C10.0361 17.8052 10.0277 15.9367 10.0025 14.261C9.98576 12.5852 9.9522 11.0435 9.91024 9.65259C9.86828 8.58847 9.37319 7.90978 8.43335 7.62489L0.184611 5.22853L0 2.09482C5.74811 2.2624 11.2445 2.33781 16.4975 2.33781C20.9281 2.33781 25.1742 2.23726 29.2356 2.02779C33.2971 1.8267 37.5012 1.71777 41.8563 1.71777C57.1622 1.71777 68.6668 4.98554 76.3869 11.5211C84.0986 18.0566 87.9586 27.7594 87.9586 40.621C87.9586 55.7784 83.679 67.5507 75.1282 75.9296C66.5689 84.3085 54.5357 88.498 39.0284 88.498C34.7572 88.498 30.9643 88.4393 27.6413 88.3136C24.3183 88.188 20.668 88.1293 16.6821 88.1293ZM28.4972 81.8619C30.4692 82.2306 32.3992 82.4652 34.2789 82.5657C36.1585 82.6663 38.0718 82.7165 40.0018 82.7165C48.9051 82.7165 55.6769 79.5828 60.3174 73.3154C64.9578 67.048 67.2738 57.5044 67.2738 44.6764C67.2738 31.8483 65.0585 22.908 60.6278 16.8668C56.1972 10.8256 49.2239 7.80085 39.6997 7.80085C36.1669 7.80085 32.4327 7.96843 28.4972 8.2952V81.8619Z" fill="#E82C27"/>
  <path d="M92.5235 33.9263C102.618 32.4097 111.48 30.8345 119.116 29.1922L119.796 29.6865C119.552 35.3423 119.426 41.3667 119.426 47.7514V70.9191C119.426 75.7956 119.468 79.1975 119.552 81.1246C119.636 82.2306 120.148 82.9261 121.088 83.2109L128.783 85.3643L128.967 88.3137C122.892 88.188 116.859 88.1294 110.876 88.1294C104.892 88.1294 98.7331 88.188 92.7836 88.3137L92.4731 85.3643L100.294 83.2109C101.234 82.968 101.746 82.3479 101.83 81.3676C101.914 79.7672 101.955 77.086 101.955 73.3155V53.5245C101.955 48.1536 101.872 43.2185 101.712 38.7106L92.9095 36.4399L92.5402 33.9179L92.5235 33.9263ZM119.611 8.84819C119.611 11.6719 118.696 13.9677 116.875 15.7273C115.046 17.4869 112.663 18.3667 109.709 18.3667C106.999 18.3667 104.775 17.5371 103.03 15.8781C101.284 14.2191 100.411 12.0573 100.411 9.39282C100.411 6.48534 101.335 4.18953 103.181 2.51375C105.027 0.837968 107.427 -0.00830078 110.38 -0.00830078C113.091 -0.00830078 115.306 0.762558 117.026 2.29589C118.747 3.82923 119.611 6.01613 119.611 8.83981V8.84819Z" fill="#E82C27"/>
  <path d="M186.918 84.074C179.324 87.9283 171.327 89.847 162.911 89.847C152.9 89.847 144.726 87.3752 138.383 82.4401C132.039 77.5049 128.875 70.2236 128.875 60.5879C128.875 50.9522 131.921 43.9223 138.013 38.1241C144.105 32.3259 151.867 29.4268 161.308 29.4268C169.557 29.4268 175.926 31.6472 180.415 36.0964C184.904 40.5456 187.153 46.6789 187.153 54.5048C187.153 55.6946 187.095 56.9263 186.969 58.1915H147.638C147.638 66.428 149.661 72.3519 153.705 75.9548C157.75 79.5577 164.387 81.3592 173.618 81.3592C178.091 81.3592 182.362 80.9738 186.423 80.1945L186.918 84.0656V84.074ZM168.449 52.2425V50.7678C168.449 45.1959 167.744 41.1991 166.326 38.786C164.908 36.3729 162.743 35.158 159.831 35.158C156.34 35.158 153.563 36.8254 151.49 40.1685C149.417 43.5117 148.217 47.5336 147.89 52.2425H168.449Z" fill="#E82C27"/>
  <path d="M235.186 68.8327C235.186 71.2878 235.194 73.4914 235.219 75.4353C235.236 77.3792 235.27 79.1304 235.312 80.6889C235.354 81.6273 235.882 82.2893 236.914 82.6579L245.96 85.2386L246.145 88.3137C239.784 88.188 233.138 88.1293 226.207 88.1293C219.276 88.1293 212.621 88.188 207.007 88.3137L206.697 85.2386L214.946 82.9678C216.011 82.6411 216.565 82.0044 216.607 81.0659C216.649 79.4237 216.674 77.5971 216.699 75.561C216.716 73.5333 216.733 71.2878 216.733 68.8327V19.8497C216.733 17.8053 216.725 15.9368 216.699 14.261C216.683 12.5852 216.649 11.0435 216.607 9.65256C216.565 8.58844 216.07 7.90975 215.13 7.62487L206.881 5.2285L206.697 2.09479C212.445 2.26237 218.126 2.33778 223.748 2.33778C227.608 2.33778 231.351 2.25399 234.984 2.09479C238.618 1.93559 241.932 1.85181 244.928 1.85181C256.005 1.85181 264.396 3.77057 270.102 7.59973C275.808 11.4289 278.661 17.1182 278.661 24.6508C278.661 33.5408 275.699 40.4534 269.767 45.3886C263.834 50.3238 255.476 52.7955 244.685 52.7955C241.773 52.7955 238.609 52.5693 235.202 52.1168V68.8327H235.186ZM235.186 46.2181C237.527 46.6706 239.843 46.8968 242.142 46.8968C247.521 46.8968 251.608 45.2462 254.419 41.9449C257.23 38.6436 258.631 33.6581 258.631 26.9802C258.631 20.3022 257.297 15.6854 254.629 12.5098C251.96 9.33416 247.756 7.75055 242.008 7.75055C239.751 7.75055 237.477 7.91813 235.177 8.2449V46.2265L235.186 46.2181Z" fill="#E82C27"/>
  <path d="M281.615 35.4008C290.359 31.4292 298.767 29.4434 306.848 29.4434C314.233 29.4434 319.763 31.0941 323.438 34.387C327.113 37.6883 328.926 42.4307 328.884 48.6143L328.574 74.1783C328.49 76.2647 328.532 77.9489 328.699 79.2141C328.867 80.4877 329.245 81.4596 329.841 82.1299C330.436 82.8086 331.317 83.2862 332.484 83.5711C333.65 83.856 335.345 84.0236 337.561 84.0655L337.93 86.8891C332.182 88.8582 327.239 89.8385 323.094 89.8385C317.514 89.8385 313.838 87.6432 312.076 83.2611C306.865 87.6432 301.343 89.8385 295.52 89.8385C289.696 89.8385 285.114 88.4141 281.422 85.5653C277.73 82.7164 275.884 78.7113 275.884 73.5499C275.884 67.1149 278.871 62.406 284.838 59.4147C290.804 56.4235 299.766 54.932 311.707 54.932L311.766 50.3236C311.807 45.9415 310.75 42.7156 308.594 40.646C306.437 38.5764 303.08 37.5458 298.532 37.5458C294.303 37.5458 289.235 38.4675 283.327 40.3109L281.607 35.3924L281.615 35.4008ZM311.715 60.7805C305.271 60.7805 300.681 61.6016 297.928 63.2355C295.176 64.8778 293.808 67.6847 293.808 71.6563C293.808 75.2592 294.781 77.8316 296.728 79.3733C298.675 80.9066 300.983 81.6775 303.651 81.6775C306.689 81.6775 309.332 80.8982 311.589 79.3398L311.715 60.7805Z" fill="#E82C27"/>
  <path d="M334.943 36.4484L334.573 33.9263C344.056 32.5354 352.732 30.977 360.612 29.2593L361.535 29.7536V35.5267C367.896 31.4713 374.03 29.4436 379.937 29.4436C387.649 29.4436 393.775 31.9908 398.306 37.0936C402.837 42.1963 405.111 48.8659 405.111 57.1024C405.111 67.2995 401.923 75.3181 395.537 81.133C389.151 86.948 380.734 89.8639 370.27 89.8639C367.476 89.8639 364.564 89.579 361.527 89.0008V101.971C361.527 106.027 361.569 108.875 361.652 110.518C361.736 111.791 362.29 112.545 363.314 112.788L371.991 115.059L372.175 118.008C365.361 117.883 358.959 117.824 352.976 117.824C346.993 117.824 340.791 117.883 334.884 118.008L334.573 115.059L342.327 112.906C343.309 112.663 343.821 112.043 343.863 111.062C343.947 108.029 343.989 103.479 343.989 97.4216V72.8966C343.989 55.0328 343.905 43.6459 343.745 38.7275L334.943 36.4568V36.4484ZM361.535 82.8423C364.405 83.454 367.174 83.764 369.842 83.764C375.255 83.764 379.358 81.6944 382.153 77.5553C384.947 73.4161 386.34 67.5006 386.34 59.792C386.34 52.5443 385.022 47.0645 382.404 43.3526C379.778 39.6491 375.985 37.789 371.017 37.789C367.451 37.789 364.287 38.4677 361.535 39.8167V82.834V82.8423Z" fill="#E82C27"/>
  <path d="M406.043 33.9263C416.138 32.4097 424.999 30.8345 432.635 29.1922L433.315 29.6865C433.072 35.3423 432.946 41.3667 432.946 47.7514V70.9191C432.946 75.7956 432.988 79.1975 433.072 81.1246C433.156 82.2306 433.667 82.9261 434.607 83.2109L442.302 85.3643L442.487 88.3137C436.411 88.188 430.378 88.1294 424.395 88.1294C418.412 88.1294 412.253 88.188 406.303 88.3137L405.993 85.3643L413.813 83.2109C414.753 82.968 415.265 82.3479 415.349 81.3676C415.433 79.7672 415.475 77.086 415.475 73.3155V53.5245C415.475 48.1536 415.391 43.2185 415.231 38.7106L406.429 36.4399L406.06 33.9179L406.043 33.9263ZM433.13 8.84819C433.13 11.6719 432.216 13.9677 430.395 15.7273C428.565 17.4869 426.182 18.3667 423.228 18.3667C420.518 18.3667 418.294 17.5371 416.549 15.8781C414.804 14.2191 413.931 12.0573 413.931 9.39282C413.931 6.48534 414.854 4.18953 416.7 2.51375C418.546 0.837968 420.946 -0.00830078 423.9 -0.00830078C426.61 -0.00830078 428.826 0.762558 430.546 2.29589C432.266 3.82923 433.13 6.01613 433.13 8.83981V8.84819Z" fill="#E82C27"/>
  <path d="M500.438 84.074C492.843 87.9283 484.846 89.847 476.43 89.847C466.419 89.847 458.246 87.3752 451.902 82.4401C445.558 77.5049 442.394 70.2236 442.394 60.5879C442.394 50.9522 445.44 43.9223 451.533 38.1241C457.625 32.3259 465.387 29.4268 474.827 29.4268C483.076 29.4268 489.445 31.6472 493.934 36.0964C498.424 40.5456 500.673 46.6789 500.673 54.5048C500.673 55.6946 500.614 56.9263 500.488 58.1915H461.158C461.158 66.428 463.18 72.3519 467.225 75.9548C471.269 79.5577 477.907 81.3592 487.137 81.3592C491.61 81.3592 495.881 80.9738 499.943 80.1945L500.438 84.0656V84.074ZM481.968 52.2425V50.7678C481.968 45.1959 481.263 41.1991 479.845 38.786C478.427 36.3729 476.262 35.158 473.35 35.158C469.859 35.158 467.082 36.8254 465.009 40.1685C462.937 43.5117 461.737 47.5336 461.409 52.2425H481.968Z" fill="#E82C27"/>
  <path d="M504.021 33.9263C513.503 32.5354 522.155 30.977 529.992 29.2593L530.915 29.7536V36.3897C538.182 31.7562 545.768 29.4436 553.69 29.4436L554 29.871C552.683 36.3814 551.432 43.3526 550.249 50.7679L546.683 51.3796C545.617 47.3242 544.568 44.2072 543.544 42.0371C542.521 39.867 540.918 38.7777 538.744 38.7777C536.571 38.7777 534.045 39.4732 530.924 40.8641V67.2325C530.924 73.5837 530.966 78.1334 531.05 80.8733C531.091 82.0212 531.603 82.7418 532.585 83.0267L541.388 85.3644L541.572 88.3138C534.759 88.1881 528.255 88.1294 522.062 88.1294C515.87 88.1294 510.247 88.1881 504.34 88.3138L504.029 85.3644L511.85 83.211C512.832 82.9261 513.344 82.3145 513.386 81.3677C513.428 79.6081 513.444 77.086 513.444 73.8099V53.2816C513.444 46.6036 513.36 41.7522 513.201 38.7191L504.398 36.4484L504.029 33.9263H504.021Z" fill="#E82C27"/>
</svg>