<svg xmlns="http://www.w3.org/2000/svg" width="24" height="24" viewBox="0 0 24 24" fill="none" stroke="currentColor" stroke-width="1.5" stroke-linecap="round" stroke-linejoin="round"><path d="M19.59 6.69a4.83 4.83 0 0 1-3.77-4.25V2h-3.45v13.67a2.89 2.89 0 0 1-2.88 2.5 2.89 2.89 0 0 1-2.89-2.89 2.89 2.89 0 0 1 2.89-2.89c.28 0 .54.04.79.1v-3.51a6.37 6.37 0 0 0-.79-.05A6.34 6.34 0 0 0 3.15 15a6.34 6.34 0 0 0 6.34 6.34 6.34 6.34 0 0 0 6.34-6.34V8.79a8.24 8.24 0 0 0 4.76 1.5v-3.4a4.85 4.85 0 0 1-1-.2z"/></svg>
